<svg xmlns="http://www.w3.org/2000/svg" width="1006.689" height="1005.994" viewBox="0 0 1006.689 1005.995"><path fill="#fdd203" d="M882.385 834.803c-246.875 283.713-710.748 201.28-847.068-147.596C-104.499 329.385 190.768-44.738 570.161 4.362c396.44 51.307 575.617 527.744 312.224 830.44z"/><path d="M812.803 131.22c23.136 18.737 44.322 39.81 63 63 18.638 25.67 36.887 49.187 52.172 77.328C1061.95 518.21 959.059 825.222 706.161 942.08 426.891 1071.121 98.62 907.295 32.292 609.231c-76.968-345.874 230.823-653.71 576.7-577.7 80.552 17.703 138.807 51.362 203.811 99.69z"/><path fill="#e7cc43" d="M875.803 194.22c-19.788-22.255-40.635-43.326-63-63 23.992 17.837 45.586 39.016 63 63"/><path fill="#fdb82c" d="M251.803 233.22q-1.683-2.727 2.073-4.427c54.149-18.63 113.08-33.846 171.996-40.252 110.057-11.968 219.881 5.063 324.817 39.106 4.933 3.362 12.147 5.89 12.119-2.375l1.995-1.052c.62-.929 3.901.61 4.275 1.41q.998 180.712.013 361.65c-1.523 28.551-5.609 57.231-16.288 83.94-14.421 43.431-60.309 95.075-94.985 124.515-41.33 35.088-83.396 57.226-133.339 77.661-6.934 2.837-13.912 6.236-21.155 7.903-28.853-11.519-57.964-22.934-85.193-37.907-2.402-1.32-5.673-3-7.328-5.172q7.427.376 14.775 6.453c4.196.07 7.873 2.032 10.225 5.547 16.842 5.32 33.435 12.438 49.689 19.506 3.471 2.612 16.536 11.89 17.205 3.831q1.162-55.01-.896-109.837-2.378 16.6-6.629 32.004l-2.369-.504-1.06-4.428c.952-8.55 4.209-35.875 7.41-41.66.699-1.265 10.621-1.94 10.797 1.274-.091 10.861 12.585 73.385 17.825 74.685 4.69 1.163 83.595-37.633 87.935-39.97 51.157-27.562 100.54-63.559 123.394-118.962l3.697-3.939c9.525-22.34 12.705-48.704 14.192-73.485.453-116.366.908-237.269-.192-353.515l-2.239.48c-104.31-39.99-225.591-54.937-337.52-40.237-54.717 7.186-102.891 21.102-155.441 36.59-3.173.935-6.512 1.078-9.8 1.167z"/><path fill="#fbd107" d="M259.803 682.22c-14.213-29.513-19.656-62.183-21.406-94.66l-.073-356.933q-.125-2.89 1.117-5.398c107.857-43.272 228.071-58.013 344.3-45.294l2.063-.715c56.778 6.677 120.858 21.23 174 42q2.907 1.425 5 3c.145 5.802-1.54 9.17-8.143 8.471-2.728-.289-4.521-2.486-6.658-3.169-165.731-52.933-316.852-60.297-482.98-2.583-5.517 1.916-11.099 1.206-15.219 6.281 2.043 1.643 1.578 2.261-1 2a39052 39052 0 0 0-.542 336.173c.602 23.556 1.426 48.88 8.542 71.827l3.321 4.447c29.593 98.198 131.447 141.515 218.223 177.714 4.131-9.244 7.297-19.27 10.156-29.223l2.3-.937c1.849-1.016 1.627-2.804 1.986-4.515 2.542-12.124 5.056-24.073 6.019-36.48l2.989 2.501.054 118.042c-.084 2.426-1.361 4.753-4.052 4.053-4.776-1.242-11.686-5.866-16.302-7.795-16.546-6.914-31.458-13.038-47.694-20.806q1.778-2.464 0 0c-8.261-3.953-17.059-7.902-25-12-54.977-28.37-127.241-98.473-151-156z"/><path fill="#f9d20a" d="M327.803 819.22c-15.405-7.272-31.335-18.128-44.915-28.585-153.79-118.434-187.253-337.444-74.901-496.73 3.326-4.716 7.634-11.419 11.53-15.403.557-.569-.058-1.977 2.285-1.272-1.124 4.896 1.054 9.947-.455 15.034-1.051 3.545-12.036 17.305-14.96 22.041-109.49 177.377-49.499 401.504 132.394 500.437 10.165 5.53 18.998 7.812 28.021 15.48l7.942 5.9c5.47 1.538 6.302 7.678.754 5.487-16.321-6.446-32.384-13.95-47.696-22.388zm341-4c11.433-6.9 23.539-14.08 34.721-21.779 151.933-104.58 198.405-310.953 103.086-470.529-3.735-6.253-19.076-26.349-20.352-30.649-1.016-3.422-.589-9.569-.074-13.192.097-.682-1.327-2.607 1.107-1.858 1.471.453 16.106 21.801 18.142 24.876 106.61 160.963 69.123 377.268-85.314 491.948-10.62 7.886-21.566 15.092-33.317 21.183-6.58 4.995-54.99 28.766-58.075 26.023-.361-.32-.562-.743-.513-1.17.488-4.282 34.287-22.4 40.588-24.852z"/><path fill="#fcfbfc" d="m366.792 78.216 15.87 42.535c-3.1 1.863-9.579 5.09-12.896 4.062-3.111-.964-24.943-20.867-25.953-19.593l9.85 26.531-9.377 4.348-16.389-43.784c2.666-.065 9.48-4.136 11.228-3.885 2.294.328 25.357 21.261 26.672 19.786l-9.038-26.442 10.032-3.557z"/><path fill="#fcfcfc" d="M106.803 339.23c2.046 3.565 25.849 11.154 26.079 12.592.142.887-2.218 6.877-2.837 8.131-.493 1 .254 1.548-1.689 1.266l-41.125-17.958 4.735-11.874 33.837-4.176c-7.302-5.593-17.574-7.813-25.935-12.066l2.97-9.899 42.936 18.537c-1.46 2.16-3.27 9.06-4.463 10.447-1.758 2.043-29.55 4.418-34.508 5.002z"/><path fill="#fdfdfd" d="M282.564 117.482c22.386-.954 34.443 29.296 15.153 44.152-26.813 20.65-56.633-16.974-31.39-37.39 4.141-3.349 10.89-6.534 16.237-6.762"/><path fill="#fcfcfc" d="M88.803 614.21c3.889.416 26.855-7.38 28.049-6.575.97.654 3.362 9.928 2.927 10.541l-44.907 9.971c.176-2.749-3.261-10.044-2.535-11.972 1.689-4.48 20.449-17.949 23.465-23.945-6.327-.68-22.498 7.048-27.369 6.07-1.038-.208-3.32-8.626-2.214-10.14 1.324-1.812 38.321-8.983 43.626-10.535 1.004 3.05 3.741 9.8 2.477 12.561z"/><path fill="#fbfbfb" d="M768.543 153.46c21.757-3.744 40.36 20.314 26.696 39.697-17.155 24.336-56.406.476-43.254-26.254 2.625-5.335 10.584-12.414 16.558-13.443"/><path fill="#fcfcfc" d="M901.798 653.217c-2.665.242-2.725 2.515-5.76 3.71-4.391 1.728-7.157 1.414-11.185-1.256-11.731-7.775-.379-26.159 2.009-36.412l43.799 15.432c-3.951 8.261-6.44 28.576-18.361 28.545-5.455-.014-11.354-4.027-10.502-10.02z"/><path fill="#fbfbfb" d="M824.789 262.218c-1.581 1.51-1.851-.8-2.271-1.276-1.542-1.74-6.347-6.578-6.506-8.377-.36-4.065 8.771-16.65 6.309-20.36-1.286-1.94-1.84-.74-3.018.013-4.158 2.662-7.947 6.985-11.999 9.953l-7.484-8.45 35.482-29.484c6.673 9.294 23.418 21.468 14.019 34.002-3.203 4.271-6.734 5.555-12.037 5.013-1.84-.188-4.937-2.009-5.5-1.568-2.183 1.712-5.456 19.065-6.995 20.534"/><path fill="#fcfcfc" d="m97.809 395.224 21.984-7.003c.401.522-2.512 12.078-3.212 12.778-1.798 1.797-15.656 3.478-19.031 5.217-.784.404-1.52 1.786-1.673 2.576-.415 2.151.682 1.226 2.121 1.686 5.09 1.627 10.573 2.69 15.808 3.751l-2.963 10.575c-5.159-1.827-42.307-8.696-43.61-10.52-1.449-2.03 3.569-20.07 5.06-23.072 6.258-12.6 25.001-10.627 25.515 4.013zM594.804 915.21c4.325.016 7.294 2.83 8.785 6.72 7.782 20.3-31.662 29.345-33.579 7.501-.382-4.348 2.124-8.755 5.803-10.71-15.204-6.805-9.13-22.979 5.728-25.259 14.075-2.16 23.645 10.745 13.262 21.747zm314.258-349.735c-1.127 1.217-2.423 6.202-2.104 8.008 1.719 9.726 27.248 8.54 34.902 11.21l-1.067 11.527c-14.469-4.62-41.356-.24-43.902-20.587-1.084-8.66 3.554-20.827 12.843-22.983 4.206-.976 35.266 2.63 36.646 4.497 1.102 1.492-.497 10.525-2.028 10.824-7.425-.482-30.229-7.967-35.291-2.497zM475.547 900.451c30.193-4.839 26.144 59.084-4.726 47.251-16.834-6.453-14.804-44.12 4.726-47.25zM430.625 63.384l26.177 41.825c-3.415-.126-9.308 2.771-12.338 2.083-.967-.219-3.095-7.328-5.315-7.96-.815-.232-15.686 2.396-16.703 2.85-1.359.607-.547 8.104-2.61 9.57-1.85 1.314-8.52.7-11.023 2.467l10.169-48.817zM185.798 258.225c-.578 1.642-5.62 10.55-6.158 10.867-1.631.962-6.715-2.282-9.139-1.71-1.705.401-10.364 12.926-10.368 14.336-.007 2.51 5.14 4.89 4.514 8.781-.209 1.297-5.808 8.717-6.346 8.701-3.271-7.052-26.45-36.317-26.431-41.489.008-2.14 4.392-9.146 7.377-8.539z"/><path fill="#fdfdfd" d="M69.808 452.216c-.632 6.551-.487 13.742-2.012 19.994l9.01 1.016.992-19.01h9.01l-1.01 20.01c2.028-.404 8.087.857 9.117-.588 1.631-2.289 1.225-16.57 1.89-20.42l10.003 1.007-3.01 31.993-45.876-4.117 2.026-29.239c.743-2.578 7.392.33 9.86-.645z"/><path fill="#fcfcfc" d="M610.8 79.223c-3.251.646-18.609-4.713-20.038-3.59-.965.757-2.389 7.143-.984 8.085 2.435 1.634 16.101 2.62 16.926 3.593 1.076 1.27-.922 6.947-.909 8.91l-18.981-4.007c.359 2.121-2.034 7.187-1.769 8.557.427 2.21 17.651 3.836 20.732 5.497.305.422-1.647 8.661-2.018 8.93-1.276.924-26.814-6.314-30.936-6l9.092-44.869c1.208-.839 27.718 4.507 28.923 5.35 2.465 1.722-.407 6.895-.038 9.543zM934.873 457.12c-.414-.588 3.76-7.353 1.411-13.883-5.774-16.052-34.051-6.032-25.692 10.7 1.203 2.408 4.787 4.008 4.098 6.576-.103.384-4.526 6.09-4.888 6.28-5.153 2.734-10.688-13.21-10.989-17.082-2.776-35.708 51.816-35.494 48.912.877-.157 1.971-2.644 11.223-4.488 11.62-.479.103-8.081-4.687-8.363-5.087zM420.804 931.21c2.336.958 16.382 2.411 16.98 3.032.311.324-.709 8.61-1.032 8.922-1.799 1.742-28.349-5.536-32.956-4.94-4.92-15.264 32.15-19.445 26.495-31.977-4.165-9.232-11.187 2.62-11.948 2.738-1.431.221-7.084-3.366-9.543-2.773 4.888-22.463 44.516-11.12 31.85 10.357-3.744 6.35-14.786 9.315-19.847 14.641zM687.86 148.132l21.965-40.912c11.066 6.133 35.567 15.764 22.4 31.922-7.634 9.368-17.353 3.997-25.937-.677-7.654 7.631-5.163 19.235-18.428 9.667"/><path fill="#fcfbfc" d="M665.96 100.078c-1.91-1.12-3.636-8.69-10.438-6.69-9.791 2.88 5.918 12.877 7.686 14.928 7.403 8.59 2.023 21.724-8.881 22.926-7.646.843-19.401-4.186-22.775-11.308-1.751-3.697 6.471-6.914 7.652-6.634 1.055.25 3.806 5.94 6.854 7.164 4.176 1.678 9.198 2.016 8.719-3.679-.601-7.145-17.876-10.424-13.017-24.116 5.3-14.934 28.451-9.094 34.01 3.062-.069.865-8.289 5.24-9.81 4.347"/><path fill="#fcfcfc" d="M889.803 331.72c.455-2.556 4.329-7.15 6.728-8.273 16.145-7.554 26.778 13.36 22.262 26.773-1.912-1.286-9.351-2.38-9.661-4.437-.431-2.856 2.63-15.487-6.66-12.426-6.075 2.002 3.163 17.92-6.733 25.3-15.896 11.852-32.251-13.835-23.445-27.398 12.111 4.386 6.506 4.21 7.545 12.375 1.092 8.58 9.964 7.456 9.964 5.087 0-4.77-.749-12.793 0-17z"/><path fill="#fcfbfc" d="M188.44 187.293c1.769-.309 5.719 5.285 7.345 6.427l-8.964 9 26.962 25-7.48 8.482-27.001-24.964c-6.962 5.717-7.54 14.284-15.428 3.345 2.846-3.433 22.757-26.975 24.565-27.29z"/><path fill="#fcfcfc" d="m843.804 291.235 30.09-17.49c1.934-2.506-5.647-8.683-5.17-11.934.064-.436 6.306-4 7.52-4.583l19.542 31.494c-11.402 9.694-8.636.106-16.297-5.374-3.91 2.136-28.009 18.288-30.087 17.796-.884-.209-6.161-9.155-5.597-9.909zM66.799 515.217l.999 13.008 37.01-2.01v11.01l-36.01 1.99c-.445 10.077 5.606 15.713-9.001 14.01.971-4.733-3.35-35.74-2-37.01.33-.31 7.56-.186 9.001-1zM492.808 57.215l.995 36.005h18v10h-29l-1.005-46.005zM903.803 495.22l46.005.995-.005 11.005h-36v16.5c0 1.72-10 1.03-10 .5z"/><path fill="#fdfcfd" d="m538.808 901.215 2.999 46.008c-3.686.173-7.578-.74-10.995.996l-2.015-32.995-8.501 5.896c-.478 0-5.569-6.41-5.424-7.262.183-1.074 12.459-11.583 13.976-12.093 3.269-1.1 6.637-.382 9.96-.55"/><path fill="#f6b632" d="M190.798 759.225c-1.086 25.62 24.165 28.968 37.005 44.985-6.598-2.197-16.089.416-22.057-1.433-2.49-.77-8.989-6.849-10.913-9.087-7.38-8.588-12.902-22.673-6.283-33.19.644-1.025-.056-1.76 2.248-1.275"/><path fill="#f9b834" d="M818.787 759.224c.326.315 2.77 7.464 2.924 8.58 1.323 9.56-3.092 19.494-9.398 26.426-1.6 1.76-8.642 7.97-10.455 8.545-5.88 1.871-15.509-.776-22.055 1.434 10.087-14.099 28.996-15.652 35.039-33.45 1.23-3.625 1.358-6.462 1.993-10.024.229-1.283.293-3.113 1.953-1.512z"/><path fill="#f0ca48" d="M585.803 179.22c.445 3.341-1.213 1.64-3.009 1.518-47.812-3.259-91.103-6.803-139.475-2.502-57.781 5.137-141.025 20.772-193.345 43.858-4.759 2.1-11.926 2.363-11.217 9.58l.005 350.087c1.408 35.762 7.398 67.425 21.041 100.46-15.752-28.385-19.89-61.438-22.041-93.46l.181-364.402c24.415-9.136 49.199-17.37 74.439-24.06 89.231-23.653 181.431-31.897 273.422-21.079z"/><path fill="#e3c839" d="M478.803 142.22c1.04-1.658 3.794-.996 5.486-1.017 28.926-.358 55.188.302 83.7 5.332 29.96 5.286 58.907 14.821 86.807 26.698.233 1.876-1.977.695-3.03.533-59.102-9.09-107.198-25.759-168.963-22.546-.873-.284-.86-.618 0-1 4.038-3.129 10.828-2.992 15 0 5.305-.88 10.703-.907 16 0 .697-.49 1.41-.948 2.175-1.284.731-.32 1.435-.612 2.128-.605 16.433.182 32.786 2.772 48.85 5.77a660 660 0 0 0 57.007 10.696c-40.347-15.066-82.367-19.008-125.967-20.732-.868-.034-1.729-.295-2.594-.602-.9-.32-1.755-.764-2.598-1.243a115 115 0 0 1-14 0z"/><path fill="#fcfcfc" d="m91.82 675.221-4.017-10.987 42.987-17.014 4.013 10.987z"/><path fill="#fbfbfb" d="M219.497 159.328c1.151-.31 2.066-.044 2.869.823l26.998 32.076c1.166 2.254-5.863 8.235-7.915 7.836-3.035-.59-24.791-30.53-29.629-34.342 1.786-1.05 6.371-6.039 7.676-6.393z"/><path fill="#e7b45f" d="M759.803 221.22c1.624.635 9.844 2.817 10.063 3.612l-.022 366.93c-2.394 26.978-5.182 54.832-17.041 79.458 10.684-32.176 14.971-61.505 16.027-95.45 3.594-115.479-2.797-231.567.032-347.106.238-3.155-1.968-3.289-4.059-4.443-1.694-.935-4.265-.853-5-3z"/><path fill="#eaca32" d="M478.803 142.22c4.653-.085 9.346.061 14 0a10.76 10.76 0 0 1-4.496 2.21c-14.642.813-29.279 2.285-43.761 4.717-15.735 2.643-40.576 7.138-54.419 14.234-2.382 1.221 48.607-8.73 52.112-10.032 11.712-2.345 23.544-4.168 35.489-4.89.809-.05 1.646.23 2.516.531.888.308 1.73.75 2.559 1.23v1c-36.51 1.9-80.331 13.102-117 20q-3.493.606-4-1c36.734-15.298 76.757-27.264 117-28"/><path fill="#e3c530" d="M779.803 831.22c-11.965-3.01-21.143 9.71-30.082 15.418-8.355 5.336-17.234 8.044-26.919 5.083-1.379-.42-11.064-4.446-8.993-6.498 1.897.165 3.433 1.111 5.433 1.047 32.603-1.049 29.906-38.32 75.007-35.004 1.597.117 3.287 1.726 4.062 1.673.932-.065 4.197-4.165 7.047-4.677 3.568-.64 5.968.872 8.95.97 1.31.043 4.15-1.315 4.487-1.008 1.634 1.487-.817 1.882-1.272 2.284-3.257 2.871-7.022 5.808-9.697 9.237-3.301 4.232-4.485 9.664-9.024 12.476-1.488-1.018.594-3.175 2-4-1.839-5.578 4.347-11.98 8.48-15.748a94.6 94.6 0 0 1-12.585 3.83c-19.158-6.815-38.26 5.852-49.328 21.51-5.357 5.995-12.068 9.156-19.774 10.66 6.843 2.531 14.563-1.653 20.288-5.543 5.247-5.064 29.728-22.398 35.945-14.78 1.812 2.221-.715 5.618-3.027 3.071-.312.402-.646.39-1 0z"/><path fill="#dcbf33" d="M212.803 835.22c-8.452-4.99-7.348-8.045-12.587-14.913-3.142-4.119-7.35-6.68-10.773-9.999-.907-.879-1.47-1.388-.129-2.103 4.641 2.298 8.716-.95 13.781.227 2.719.633 4.071 3.59 6.222 3.796 4.61.442 12.573-1.64 18.878-.9 29.672 3.475 31.813 37.206 63.541 34.33 5.778-.524-1.418 3.925-3.244 4.751-22.245 10.061-31.202-7.92-46.689-16.189-1.326-1.302-.779-1.49 1-1q3.663-1.629 7.956 2.84c9.182 8.125 18.843 15.742 31.943 12.648-8.214-1.424-15.671-3.25-21.236-10.087-11.872-16.884-32.076-29.627-52.791-22.495-.906-.846-10.307-6.429-9.716-3.27a190 190 0 0 0 14.38 20.132z"/><path fill="#e4ca3a" d="M668.803 815.22c-11.507 6.946-28.403 14.403-38.032 23.468-.458.431-1.061.89-.967 1.522 2.837 2.083 40.285-16.508 46.058-19.432 3.565-1.806 7.518-3.784 10.942-5.558-1.658 2.182-4.921 3.84-7.328 5.172-20.519 11.364-43.308 21.163-65.672 27.818 17.554-11.93 34.442-25.907 55-32.99z"/><path fill="#eacd2b" d="M800.803 828.22c-.716 1.185-1.651 3.528-2 4-5.096 6.89-16.806 6.727-23.672 11.828l-16.328 11.162c5.656-8.977 11.701-18.337 21-23.99h1q1.332 3.794-3.555 6.568 14.047-1.377 21.475-11.098z"/><path fill="#dbc346" d="m242.803 833.22-1 1c-3.809-2.034-9.745-4.725-13.995-3.505 7.147 5.655 14.504 13.001 19.006 20.994.42.745 2.401 2.878 1.479 3.521-5.258-3.82-10.056-8.042-15.819-11.18-6.475-3.528-13.496-5.183-19.672-8.829q3.242-2.243 9.263.175 20.395 10.33 4.495-1.124c-3.013-2.638-3.93-5.286-.124-7.702 2.181-1.384 17.44 2.451 16.366 6.651z"/><path fill="#e5c63f" d="M327.803 819.22c6.188 2.921 12.571 5.84 18.791 8.71 9.624 4.441 19.194 8.97 28.946 13.142l3.264-1.835c-5.173-1.478-8.472-6.019-12-9.017 9.438 5.144 18.381 11.98 27 17.99-21.468-6.214-42.585-15.519-62.356-26.137-1.405-.755-3.005-1.15-3.644-2.853z"/><path fill="#a8a268" d="m361.803 170.22 4 1c-4.281.805-8.581 2.648-12.994 2.99 1.735-2.655 6.396-2.908 8.994-3.99"/><path d="M756.803 235.22c1.087 116.094.645 236.29.216 352.768-1.428 25.138-4.485 50.911-14.216 74.232-27.625 73.493-102.555 115.63-170.324 146.176-5.39 2.43-42.701 19.257-45.073 18.687-6.455-1.55-15.947-50.604-17.294-58.67-.449-2.689-1.685-17.52-2.318-18.183-.372-.389-5.992.273-7.424-.05-3.301 14.728-4.032 30.38-7.566 45.04-1.222 5.067-3.797 12.842-5.541 17.96-.834 2.446-4.286 12.018-5.354 13.43-.78 1.03-1.383.764-2.49.59-88.513-37.045-193.593-81.944-220.614-183.979q-9.02-34.855-8.542-71.439-.436-168.4.542-336.56c.207-.555.672-1.597 1-2 67.138-22.77 137.351-39.472 208.51-43.99 88.845-5.643 204.301 8.93 287.447 41.532 2.841 1.114 7.602 2.147 9.043 4.457z"/><path fill="#f1c659" d="M756.803 235.22c.712 1.14 1.41 1.723 1.066 3.394l-.025 350.147c-1.063 25.551-5.229 47.64-13.313 71.696-.224.667-.765 4.271-1.728 1.763 10.378-27.61 12.65-57.29 14.041-86.459z"/><path fill="#fdd100" d="M435.803 850.22c-.905-.429-.082-5.652-6.645-6.653-1.038-.158-2.444.775-3.641.47-1.637-.416-3.848-3.96-6.575-3.95 2.865-16.812-5.375-7.666-13.434-10.08-.746-.224-13.009-6.88-13.636-7.356-3.678-2.79-3.533-6.706-11.067-4.423 2.216-5.579-6.541-5.43-8.087-7.654-1.384-1.99-.239-6.845-1.844-7.925-2.62-1.763-8.853 2.298-9.038-6.039-.092-4.143 5.304-8.326-4.035-7.385l-.493 5.971c-3.845-4.124-10.549-4.456-12.068-9.952-.384-1.388.779-3.139.146-4.053-.9-1.3-5.45-.818-7.961-2.095-3.516-1.788-3.974-6.178-6.551-8.449-1.472-1.297-3.272-1.339-4.957-3.044-6.173-6.247.503-9.39-1.573-12.426-2.123-3.103-7.019 3.207-9.087.09-2.779-4.193 3.26-9.026 6.887-7.944 2.279.68 4.351 7.301 5.304 7.981 1.715 1.223 6.759 1.275 9.277 2.486 2.441 1.174 6.264 6.592 7.038 6.95 2.306 1.064 6.598-.182 8.489 3.502 1.379 2.687-.329 5.413-.494 8.431-.071 1.306 1.001 2.832.945 4.106-.063 1.425-3.205 4.844-1.897 6.436 1.733 2.11 2.705-3.196 3.25-3.742 1.039-1.04 14.25-4.43 15.096-4.165 1.246.391 1.599 2.486 2.747 3.316 1.299.94 4.209 1.303 4.892 3.111.783 2.074-4.302 1.605-5.482 4.454-1.267 3.06 3.369 9.643 7.436 4.41 1.91-2.459-1.518-4.552-.94-7.374 2.465-2.332 14.34 4.4 17.275 6.02 2.131 1.175 4.042 1.948 6.104 3.09 2.247 1.244 8.412 8.452 9.27 8.732 1.949.636 5.986 1.014 9.138 1.862 10.951 2.948 25.289 9.815 35.582 15.418 1.903 1.036 3.345 3.823 5.597 4.477 2.719.79 4.206-.662 6.306-.406 5.487.671 8.513 5.096 15.945 3.514 10.538-2.244 5.789-6.367 8.047-13.948.809-2.717 2.871-4.517 3.48-6.517.929-3.053.391-8.703 1.256-11.514.576-1.874 7.46-3.116 2.235-11.057l2.752-7.67c.299 4.976 2.082 9.408 2.074 14.494-.013 7.914-1.087 16.884-1.107 24.96-.018 7.152 1.095 53.242-.427 55.566-1.678 2.561-3.777-.36-5.31-.748-1.718-.435-3.706-.043-5.23-.767-1.284-.61-6.652-8.523-9.707-9.365-2.282-.628-4.086.826-5.645.587-.775-.119-13.911-4.852-14.6-5.227-2.048-1.115-3.715-6.43-6.74-7.303-3.383-.975-16.463-.335-18.296-1.204z"/><path fill="#edd64d" d="m258.803 643.22-1.127.642c-5.043-17.908-6.203-36.604-7.915-55.1l-.028-350.152c-.549-1.597.758-2.557 1.069-3.389l-.041 336.541c1.582 23.845 1.862 48.125 8.041 71.46z"/><path fill="#fdd100" d="m305.788 739.224-5.958-2.495c3.542-8.882 9.168-6.47 5.958 2.495m8.01 1.001c.903.916-.363 6.176-2.495 6.975-4.054-2.32.094-9.408 2.495-6.975"/><path fill="#020202" d="M272.142 132.56c11.071-11.072 30.065 4.18 21.492 17.99-10.64 17.138-34.421-5.062-21.492-17.99"/><path fill="#010101" d="M764.154 187.873c-11.597-12.785 10.066-33.737 21.658-18.16 9.887 13.286-10.352 30.624-21.658 18.16"/><path fill="#070707" d="M901.807 635.232c-2.861 18.563-17.31 14.67-9.991-3.015z"/><path fill="#0a0a0a" d="M918.806 641.236c-3.462 17.03-16.37 12.02-8.986-3.02z"/><path fill="#060606" d="M836.674 219.361c.427.25 5.083 7.243 5.147 8.45.477 8.97-12.509 4.687-13.916-2.263-.112-1.363 6.955-7.245 8.769-6.187"/><path fill="#080808" d="M77.798 406.215c.378-17.859 17.431-15.407 10.048 1.6zm514.735 524.75c-4.899 5.172-14.464.502-11.22-6.718 3.653-8.13 17.41.183 11.22 6.718"/><path fill="#070707" d="M587.558 903.462c4.667 4.635-3.143 13.028-8.236 7.745-5.281-5.478 3.758-12.192 8.236-7.745"/><path fill="#030303" d="M476.508 910.384c12.099-3.64 9.921 28.957.795 28.935-9.973-.024-6.854-27.112-.795-28.935"/><path fill="#0d0d0d" d="m434.798 91.215-10.991 1c.839-2.634 1.645-14.174 3.5-14.99z"/><path fill="#0b0b0b" d="M159.804 264.23c.812.885-4.943 10.4-6.981 8.984-1.025-.712-5.757-10.46-8.02-11.983z"/><path fill="#080808" d="M714.819 121.221c3.804.68 10.938 4.648 9.587 9.02-1.972 6.383-11.209 3.74-13.174-.024-1.295-2.48 3.825-6.015 3.587-8.995z"/><path fill="#f9d10a" d="M492.803 142.22c35.736-1.437 78.578 4.643 112.789 14.711 5.669 1.668 24.212 7.167 28.221 9.78.478.31 1.299 1.276.989 1.5-9.765-1.387-20.596-2.286-30.264-4.225-34.005-6.82-54.835-13.065-90.736-13.764-5.269-.914-10.726-.88-16 0-4.981.062-10.026-.17-15 0-36.623 1.26-66.697 12.984-101.628 16.877-2.847.317-5.704-.436-2.381-2.39 1.344-.79 3.248-.113 4.255-.555 31.736-13.925 74.827-20.527 109.754-21.932z"/><path fill="#eaca32" d="M513.803 150.22c-5.307-.103-10.692-.066-16 0 4.263-1.689 11.946-1.665 16 0"/><path fill="#fbd105" d="M780.803 831.22c.282-.395 2.555-1.26 1.998-1.988-21.405-4.004-31.766 23.266-53.444 22.024l-7.544-2.52c4.557-2.848 10.753-2.906 15.495-5.51 10.964-6.026 15.724-17.84 25.357-23.644 6.356-3.83 20.366-8.483 27.589-7.31 1.518.246 2.599 1.636 4.112 1.913 5.92 1.084 11.686-4.418 17.432-3.959.558 4.063-4.07 5.68-5.986 8.504-1.845 2.721-3.164 6.434-5.009 9.491-3.655.214-3.525 4.308-5.831 5.942-1.81 1.283-10.567 4.033-13.133 4.634-4.006.937-4.778.703-9.381 3.395-.198.116-2.617 4.74-2.636.528-.002-.337 3.844-4.738 4.315-5.169 3.084-2.82 3.125-1.38 6.666-6.33z"/><path fill="#fcd307" d="M212.803 835.22c-1.088-.64-6.24-7.464-7.414-9.086l-10.581-15.909c2.692.146 5.645-.398 8.286.205 2.671.61 4.273 3.745 6.184 3.781 1.516.028 3.204-1.725 5.079-1.94 12.629-1.456 28.173 3.63 37.458 12.437 6.079 5.767 11.193 14.754 19.087 18.913 3.148 1.66 14.615 3.167 14.913 4.101 1.001 3.134-4.044 3.348-6.528 3.487-18.591 1.043-22.901-10.615-36.485-17.989-2.334-1.267-16.077-7.859-16.996-3.483-.587 2.794 15 11.398 11.991 14.478-.62.634-13.003-5.683-14.993-6.497-2.167-.886-8.271-1.479-10.002-2.498z"/><path fill="#fed000" d="M393.803 613.22c17.504-37.724 40.143-38.01 74.761-49.739 17.745-6.012 42.64-33.353 58.781-46.219 25.444-20.28 77.45-58.5 109.216-62.782 12.497-1.685 22.074 4.945 21.145 18.097-3.413 48.3-42.98 110.82-77.889 143.157-5.336 4.943-23.382 17.467-24.624 23.446-1.792 8.624 8.81 16.15 15.582 19.57 3.593 1.814 17.44 4.77 14.123 9.771-1.858 2.802-22.466 6.22-26.723 6.571-5.443.45-15.058-.92-19.372.128q-.282 5.135 5.003 9.507l15.325 10.752c7.706 5.69-.144 8.291-7.188 8.66a1352 1352 0 0 1-67.368 1.391q-32.062 6.314-62.439 20.67c-21.918 9.525-47.454 2.728-64.076-13.184-5.444-5.21-10.633-10.824-3.578-17.52 11.348-9.122 17.635-15.665 22.08-30.368q4.319-27.646 17.24-51.908z"/><path fill="#fed000" d="M476.803 474.22c4.034-2.709 19.612-11.463 23.635-7.747 4.748 4.386.561 32.13-.881 38.42-4.464 19.483-11.962 44.077-34.105 48.473-25.478 5.908-49.635 17.02-67.65 36.855-.398 1.378-4.908 8.38-5.564 8.57-.848.245-2.193-.38-2.597-1.156-1.989-3.814 12.264-43.53 16.161-49.413 11.833-27.473 44.103-61.07 71-74z"/><path fill="#d10310" d="M442.809 291.202c5.526 1.828 8.824 7.743 9.059 13.503.554 13.543-9.982 21.253-22.575 22.506-4.616.46-40.672.602-42.502-.479-1.702-1.006-1.874-4.152-2.036-5.964-.445-4.973-.82-43.739.483-45.61.951-1.367 14.286-1.434 15.627-.5 2.003 1.392.377 8.013.932 8.567.957.956 25.685.07 26.987-.523 7.937-3.607 5.802-14.096-2.539-15.425-11.492-1.83-26.812 1.412-38.742-.258-3.73-1.099-5.193-12.948 1.753-13.845 9.577-1.236 39.072-.715 47.773 2.32 15.387 5.363 18.515 24.002 5.792 34.254z"/><path fill="#fbd008" d="M587.803 371.22c.48-4.23.135-8.327-3.635-10.865-.532-.358-4.599-2.135-4.865-2.135h-20.5v57.5c0 .106-1.394 1.5-1.5 1.5h-15.5v-72c4.566-1.553 8.515-.21 12.499-.19 8.287.04 18.605-.839 26.72-.536 16.939.631 29.01 13.906 23.499 30.943-2.693 8.324-9.435 10.891-16.698 14.283l23.98 27.5h-20.5c-1.508 0-18.094-20.439-19.5-23-4.536-4.036-4.847-10.408-3.765-16.035q14.806 1.735 19.765-6.965"/><path fill="#fcd306" d="M702.803 417.22h-19.5c-1.78 0-15.584-24.2-18.631-27.366-2.286-2.376-2.452-2.376-4.738 0-3.047 3.166-16.851 27.366-18.631 27.366h-19.5l26.015-38.517-23.012-33.476c1.103-1.19 16.784-1.493 18.985-.494 3.527 1.6 13.215 20.64 17.163 24.837.71.755.848 1.96 2.327 1.642 2.313-.497 13.512-21.22 16.64-24.375.885-.892 3.38-2.616 4.384-2.616h15c.114 0 1.995 1.451 1.016 1.997l-22.453 32.506 24.937 38.497z"/><path fill="#fcd105" d="m441.803 417.22 33.159-71.836 18.381-.237 34.46 72.074h-16.5c-1.065 0-6.517-11.784-6.5-14h-32c-.09-2.225 5.496-14 6.5-14h18.5l-13.487-28.992c-5.351 5.633-23.859 56.992-27.013 56.992z"/><path fill="#ce0412" d="m494.803 263.22 5 12c2.564 6.105 13.105 34.81 16.439 37.061 1.222.825 2.041 1.18 3.561.94v-59c5.089-1.047 9.942-1.752 15 0v72c-14.826 1.874-27.788 3.858-35.178-11.323-6.89-14.156-11.231-30.467-18.389-44.61-2.287-6.03-15.908-1.007-17.997-4.005-.744-1.067-.757-8.954-.272-10.399 1.687-5.022 19.764-2.214 24.132-.46 4.484 1.8 5.402 4.104 7.704 7.795z"/><path fill="#d10410" d="M547.803 254.22c4.865-.255 10.679-2.77 15.041.665.643 15.613 1.465 31.222 1.006 46.882-.082 2.785-1.261 5.707-1.135 7.96.296 5.274 4.266 3.647 6.312.217 6.705-11.24 11.577-30.698 17.602-43.398 4.743-9.998 8.048-12.47 19.686-13.306 9.707-.697 10.659 2.074 9.554 11.517-.576 4.917-10.705-.806-14.916 6.111-5.25 8.624-9.384 24.42-13.664 34.336-1.637 3.794-6.106 15.297-8.561 17.44-6.431 5.61-23.055 5.362-30.925 3.574v-72z"/><path fill="#fcd105" d="M320.803 387.22a769 769 0 0 0-.846 28.792c-.701 1.196-12.874 1.426-14.076-.135-.366-22.81-.515-46.113-.08-68.984.004-.23.442-.453 1.003-.674l.306-1h49.113l2.581 1c.735 1.803.907 11.2-.208 11.961l-36.792 1.04c-1.349 1.346-1.521 10.853-1 13q17.631 1.572 35.919 1.217 4.116 14.617-7.763 12.558a197 197 0 0 0-27.156.224c-.18.102-.898.82-1 1z"/><path fill="#fbd204" d="M391.803 403.22q13.245 2.193 27.663.82c10.912-.749 10.989 2.1 9.397 11.766-.148.9-.645.974-1.56.414-15.98.861-33.806.845-50 0-1.229.876-2.458-.13-1.5-1.5l-1-.077v-43.25l1-.673c-3.534-4.892 12.704-4.35 13.938-2.712q-.123 3.981 2.562 6.212c.038-.557.087-.992.175-1 9.589-.878 23.802-.417 33.646 0 .24.01.462.444.679 1 1.313 2.347 2.045 9.393-.292 11.006-11.239.93-22.531.726-33.787.151-5.299.612-2.961 13.604-1.921 17.843.265.085.651-.043 1 0"/><path fill="#f7cf0c" d="m378.55 344.467 49.613-.107c2.636.863 2.142 13.418.703 14.424-3.282 2.294-45.957-.733-53.424.297-2.755-.902-3.474-15.965 3.107-14.613z"/><path fill="#ca0610" d="M477.803 274.22v52c0 .754-12.492 2.43-14.511-.989-2.768-4.685.975-41.238-.349-49.372 1.042-3.186 11.811-1.025 14.86-1.64z"/><path fill="#eacb43" d="M393.803 613.22c-3.4 7.328-7.175 15.94-9.727 23.773-4.772 14.652-5.314 34.612-15.277 46.723-3.601 4.378-16.633 12.695-16.988 18.074-.546 8.278 20.934 21.322 28.007 23.913 13.262 4.857 23.018 5.858 36.536 1.57 18.96-6.017 37.696-16.507 57.22-20.78 27.593-6.042 57.748 1.288 85.56-4.44 2.719-1.276 1.885-2.896.234-4.9-1.955-2.375-11.568-7.962-15.039-10.96-2.007-1.734-4.869-6.018-5.845-6.717-.81-.58-2.478-.088-2.687-.265-.191-.16 1.59-3.646 3.006-3.99-.009 2.982 3.021 6.557 4.959 8.54 3.274 3.351 18.919 12.396 19.571 13.434a3.82 3.82 0 0 1 .003 4.054c-4.749 7.685-65.462 4.133-77.073 4.93-24.858 1.706-47.396 16.3-70.925 23.075-19.599 5.643-40.222-.3-55.546-13.522-20.516-17.7-3.769-19.93 7.525-33.499 9.515-11.433 9.753-26.332 13.772-40.228 2.823-9.762 6.317-20.872 12.716-28.784z"/><path fill="#e7cc45" d="M391.803 403.22c11.228 1.38 24.846-1.143 36.36.14 2.619.857 2.184 13.387.651 14.44-.715.6-1.26-.58-1.511-.58h-52c-.106 0-1.5-1.394-1.5-1.5v-48c0-.106 1.394-1.5 1.5-1.5h15.5c.3 0-.3 6 0 6h37c.719 0 2.286 14-.5 14h-36.5v17c-2.868-.917-2.43-11.448-2.057-14.558.772-6.45 6.259-3.43 10.512-3.389 3.978.038 27.008.827 27.586-1.719.567-2.499-.472-6.556-.041-9.335h-34.5c-3.359 0-3.037-5.76-4.113-6.062-2.327-.653-12.387-.83-12.387 2.562v44c0 .106 1.394 1.5 1.5 1.5h50c1.891 0 2.082-8.602 1.063-10.063-1.399-2.007-27.218-.549-32.118-.879-1.863-.125-3.744.24-4.446-2.058z"/><path fill="#d10412" d="M611.803 312.22c.952 1.14 11.696 13.436 11 13.99-4.736.344-13.707 2.425-17.98.491-1.746-.79-11.489-13.473-11.854-15.227-.276-1.327 2.016-6.916 2.835-8.253l4.113-6.25a213 213 0 0 1 11.887 15.25z"/><path fill="#e7cd41" d="M398.803 590.22h-1c11.653-14.234 28.682-25.072 46.016-31.484 13.296-4.919 32.629-6.283 40.827-18.177 10.386-15.068 17.536-44.823 17.175-62.8-.029-1.436-.866-7.58-1.229-8.82-1.102-3.759-5.093-2.173-7.951-1.373-3.879 1.087-11.943 4.781-15.837 6.654.639-1.702 2.238-2.098 3.644-2.853 4.841-2.6 20.46-12.633 22.33-2.62.829 4.437.406 17.952.01 22.957-1.177 14.853-9.754 41.194-19.154 52.846-7.006 8.683-27.362 11.538-38.348 15.652-16.091 6.027-35.379 16.708-46.482 30.018z"/><path fill="#e3c94a" d="m320.803 387.22.005 30.005c-4.523-.65-9.701.595-13.964.583-.834-.002-2.042-.365-2.042-1.088v-71c0-.106 1.394-1.5 1.5-1.5h50c.538 0 2.224 1.546 3.5 1v14h-38l36.89-2.106.11-10.894h-52l-.55 67.05c-.36 4.073 11.86 3.34 12.445 2.841 2.829-2.414-.747-23.839 2.106-28.89z"/><path fill="#e7ce49" d="M320.803 372.22h37v14h-36c.875-.494.774-.875 2.393-1.059 7.65-.873 25.174 1.82 30.968-.08 2.51-.823 2.235-9.36.703-10.424-2.362-1.64-26.143.313-31.612-.387-1.662-.213-2.989-.143-3.452-2.05"/><path fill="#d8c545" d="M405.803 548.22c-3.911 9.08-15.054 37.825-15.032 46.481.016 6.472 5.397-2.484 7.032-4.48h1c-3.039 3.642-6.742 12.415-9.48 15.02-.475.452-.837 1.09-1.51.98-2.654-3.676 12.07-52.2 17.99-58z"/><path fill="#e2c94b" d="M571.803 394.22c-7.201-3.587-4.653-10.327-5.005-17.005 7.766-.169 16.492 1.743 21.005-5.995-1.292 11.381-16.351 4.753-18.564 7.937-2.401 3.455.669 11.611 2.564 15.063"/><path fill="#860d1a" d="M611.803 312.22c-3.753-4.498-8.621-8.637-11.019-14-.319-.229-4.649 4.458-4.981 5l3.495-7.995c3.875 5.634 10.322 10.565 12.505 16.995"/><path fill="#680a0d" d="M499.803 275.22c-2.621-3.17-4.341-7.908-5-12 3.033 4.862 3.082 7.433 5 12"/><path fill="#020101" d="M522.803 627.22c2.88-3.127 4.25-6.344 6.977-9.523 7.311-8.526 18.22-14.874 26.55-22.45 20.91-19.017 42.957-51.814 45.36-80.656.844-10.137-5.734-5.059-12.244-2.228-14.077 6.121-30.654 15.87-42.96 25.04-11.937 8.895-20.672 18.473-30.187 29.813-.457-4.074 4.089-9.922 6.477-13.523 19.634-29.609 54.729-53.844 86.006-69.994 3.686-1.903 28.28-14.197 30.017-12.48-3.723 39.393-24.975 82.867-51.022 112.475-12.69 14.425-26.795 23.174-40.447 35.553-8.525 7.73-14.669 13.604-9.531 25.966-16.815-3.7-33.58-3.182-48.989 5.02l15.369 6.11c5.161 3.08 10.692 6.763 14.596 11.404 7.779 9.246 2.541 6.322-5.027 7.918-18.791 3.963-35.211 11.221-50.947 22.053-.947.652-2.14 2.97-2.999.502 10.26-12.683 24.053-23.07 39.4-28.943 3.28-2.037-1.208-4.716-3.849-5.65l-24.799-7.76c-2.757-3.032 13.344-12.22 16.531-13.859 10.29-5.29 21.472-8.509 32.707-10.173l3.01-4.614z"/><path fill="#030304" d="M388.79 676.213c-1.865.187-.959-3.253-.747-4.25 4.817-22.652 28.626-40.346 49.514-47.488 7.281-2.49 9.922-4.809 9.229 5.231-1.059 15.345-13.164 28.758-27.445 33.554-10.739 3.607-26.17.463-30.551 12.954z"/><path fill="#e6c73b" d="M522.803 627.22c-.29 1.142-1.634 5.5-2.171 5.828s-10.02 1.388-12.457 2.044c-13.46 3.622-27.684 9.388-37.363 19.642l25.677 8.301c1.204.247 9.148 5.366 8.313 6.175-18.399 3.3-32.119 16.583-44.999 29.011-.257-1.765 1.088-2.43 1.974-3.527 6.778-8.385 17.91-16.313 27.159-21.84 1.645-.983 9.51-4.234 9.859-4.652 1.326-1.588-.562-1.77-1.242-2.276-6-4.456-26.719-7.673-27.659-8.787-3.454-4.098 9.052-11.605 12.014-13.312 7.815-4.503 19.149-8.844 27.685-11.315 6.695-1.938 7.332 1.093 13.21-5.29z"/><path fill="#0e0203" d="M401.803 297.22h26.5c.256 0 4.043 2.171 4.451 2.55 6.079 5.632-.349 13.566-7.408 14.493-3.579.47-17.722.564-21.042-.043-.831-.152-2.501-.797-2.501-1.499z"/></svg>